<svg xmlns="http://www.w3.org/2000/svg" xmlns:xlink="http://www.w3.org/1999/xlink" width="500" zoomAndPan="magnify" viewBox="0 0 375 374.999991" height="500" preserveAspectRatio="xMidYMid meet" version="1.0"><defs><clipPath id="04c01a7299"><path d="M 7.867188 7.867188 L 367.117188 7.867188 L 367.117188 367.117188 L 7.867188 367.117188 Z M 7.867188 7.867188 " clip-rule="nonzero"/></clipPath></defs><path fill="#000000" d="M 91.691406 121.628906 C 81.738281 121.628906 73.730469 129.640625 73.730469 139.59375 L 85.707031 139.59375 C 85.707031 136.300781 88.398438 133.605469 91.691406 133.605469 C 94.988281 133.605469 97.679688 136.300781 97.679688 139.59375 L 109.65625 139.59375 C 109.65625 129.640625 101.648438 121.628906 91.691406 121.628906 Z M 91.691406 121.628906 " fill-opacity="1" fill-rule="nonzero"/><path fill="#000000" d="M 163.542969 121.628906 C 153.589844 121.628906 145.582031 129.640625 145.582031 139.59375 L 157.554688 139.59375 C 157.554688 136.300781 160.25 133.605469 163.542969 133.605469 C 166.835938 133.605469 169.53125 136.300781 169.53125 139.59375 L 181.503906 139.59375 C 181.503906 129.640625 173.496094 121.628906 163.542969 121.628906 Z M 163.542969 121.628906 " fill-opacity="1" fill-rule="nonzero"/><path fill="#000000" d="M 127.617188 181.503906 C 124.324219 181.503906 121.628906 178.8125 121.628906 175.519531 L 109.65625 175.519531 C 109.65625 185.472656 117.664062 193.480469 127.617188 193.480469 C 137.574219 193.480469 145.582031 185.472656 145.582031 175.519531 L 133.605469 175.519531 C 133.605469 178.8125 130.910156 181.503906 127.617188 181.503906 Z M 127.617188 181.503906 " fill-opacity="1" fill-rule="nonzero"/><g clip-path="url(#04c01a7299)"><path fill="#000000" d="M 349.15625 223.417969 L 229.40625 223.417969 L 229.40625 109.65625 C 229.40625 53.449219 183.824219 7.867188 127.617188 7.867188 C 71.410156 7.867188 25.832031 53.449219 25.832031 109.65625 L 25.832031 255.902344 L 21.117188 257.171875 C 13.332031 259.34375 7.867188 266.453125 7.867188 274.535156 L 7.867188 361.128906 C 7.867188 364.425781 10.5625 367.117188 13.855469 367.117188 L 361.128906 367.117188 C 364.425781 367.117188 367.117188 364.425781 367.117188 361.128906 L 367.117188 241.378906 C 367.117188 231.5 359.035156 223.417969 349.15625 223.417969 Z M 49.78125 144.53125 C 40.425781 141.238281 35.558594 130.984375 38.855469 121.628906 C 39.75 119.160156 41.171875 116.839844 43.042969 114.96875 C 44.992188 113.097656 47.3125 111.675781 49.78125 110.777344 Z M 205.457031 110.703125 C 207.925781 111.601562 210.246094 113.023438 212.191406 114.820312 C 215.558594 118.1875 217.429688 122.828125 217.429688 127.542969 C 217.429688 135.101562 212.566406 141.839844 205.457031 144.382812 Z M 61.753906 145.582031 L 61.753906 103.667969 L 73.730469 103.667969 C 75.976562 103.667969 78.070312 102.394531 79.042969 100.375 L 85.707031 87.128906 L 92.367188 100.375 C 93.339844 102.394531 95.433594 103.667969 97.679688 103.667969 L 157.554688 103.667969 C 159.800781 103.667969 161.898438 102.394531 162.871094 100.375 L 169.53125 87.128906 L 176.191406 100.375 C 177.164062 102.394531 179.261719 103.667969 181.503906 103.667969 L 193.480469 103.667969 L 193.480469 145.582031 C 193.480469 181.953125 163.992188 211.441406 127.617188 211.441406 C 91.246094 211.441406 61.753906 181.953125 61.753906 145.582031 Z M 109.65625 221.246094 C 121.480469 224.09375 133.753906 224.09375 145.582031 221.246094 L 145.582031 253.355469 C 145.582031 263.308594 137.574219 271.316406 127.617188 271.316406 C 117.664062 271.316406 109.65625 263.308594 109.65625 253.355469 Z M 175.519531 355.144531 L 121.628906 355.144531 C 118.335938 355.144531 115.644531 352.449219 115.644531 349.15625 L 115.644531 343.167969 L 175.519531 343.167969 Z M 355.144531 355.144531 L 187.492188 355.144531 L 187.492188 241.378906 C 187.492188 238.085938 190.1875 235.394531 193.480469 235.394531 L 349.15625 235.394531 C 352.449219 235.394531 355.144531 238.085938 355.144531 241.378906 Z M 355.144531 355.144531 " fill-opacity="1" fill-rule="nonzero"/></g><path fill="#000000" d="M 283.292969 295.269531 C 283.292969 296.054688 283.214844 296.832031 283.0625 297.605469 C 282.910156 298.375 282.683594 299.125 282.382812 299.851562 C 282.082031 300.578125 281.710938 301.265625 281.273438 301.921875 C 280.839844 302.574219 280.34375 303.179688 279.785156 303.734375 C 279.230469 304.292969 278.625 304.789062 277.972656 305.226562 C 277.316406 305.660156 276.628906 306.03125 275.902344 306.332031 C 275.175781 306.632812 274.425781 306.859375 273.65625 307.011719 C 272.882812 307.167969 272.105469 307.242188 271.316406 307.242188 C 270.53125 307.242188 269.753906 307.167969 268.980469 307.011719 C 268.210938 306.859375 267.460938 306.632812 266.734375 306.332031 C 266.007812 306.03125 265.320312 305.660156 264.664062 305.226562 C 264.011719 304.789062 263.40625 304.292969 262.851562 303.734375 C 262.292969 303.179688 261.796875 302.574219 261.363281 301.921875 C 260.925781 301.265625 260.554688 300.578125 260.253906 299.851562 C 259.953125 299.125 259.726562 298.375 259.574219 297.605469 C 259.421875 296.832031 259.34375 296.054688 259.34375 295.269531 C 259.34375 294.480469 259.421875 293.703125 259.574219 292.933594 C 259.726562 292.160156 259.953125 291.410156 260.253906 290.6875 C 260.554688 289.960938 260.925781 289.269531 261.363281 288.617188 C 261.796875 287.960938 262.292969 287.355469 262.851562 286.800781 C 263.40625 286.246094 264.011719 285.75 264.664062 285.3125 C 265.320312 284.875 266.007812 284.503906 266.734375 284.203125 C 267.460938 283.902344 268.210938 283.675781 268.980469 283.523438 C 269.753906 283.371094 270.53125 283.292969 271.316406 283.292969 C 272.105469 283.292969 272.882812 283.371094 273.65625 283.523438 C 274.425781 283.675781 275.175781 283.902344 275.902344 284.203125 C 276.628906 284.503906 277.316406 284.875 277.972656 285.3125 C 278.625 285.75 279.230469 286.246094 279.785156 286.800781 C 280.34375 287.355469 280.839844 287.960938 281.273438 288.617188 C 281.710938 289.269531 282.082031 289.960938 282.382812 290.6875 C 282.683594 291.410156 282.910156 292.160156 283.0625 292.933594 C 283.214844 293.703125 283.292969 294.480469 283.292969 295.269531 Z M 283.292969 295.269531 " fill-opacity="1" fill-rule="nonzero"/><path fill="#000000" d="M 205.457031 331.191406 L 217.429688 331.191406 L 217.429688 343.167969 L 205.457031 343.167969 Z M 205.457031 331.191406 " fill-opacity="1" fill-rule="nonzero"/><path fill="#000000" d="M 229.40625 331.191406 L 241.378906 331.191406 L 241.378906 343.167969 L 229.40625 343.167969 Z M 229.40625 331.191406 " fill-opacity="1" fill-rule="nonzero"/><path fill="#000000" d="M 253.355469 331.191406 L 265.332031 331.191406 L 265.332031 343.167969 L 253.355469 343.167969 Z M 253.355469 331.191406 " fill-opacity="1" fill-rule="nonzero"/><path fill="#000000" d="M 277.304688 331.191406 L 289.28125 331.191406 L 289.28125 343.167969 L 277.304688 343.167969 Z M 277.304688 331.191406 " fill-opacity="1" fill-rule="nonzero"/><path fill="#000000" d="M 301.253906 331.191406 L 313.230469 331.191406 L 313.230469 343.167969 L 301.253906 343.167969 Z M 301.253906 331.191406 " fill-opacity="1" fill-rule="nonzero"/><path fill="#000000" d="M 325.207031 331.191406 L 337.179688 331.191406 L 337.179688 343.167969 L 325.207031 343.167969 Z M 325.207031 331.191406 " fill-opacity="1" fill-rule="nonzero"/></svg>